<?xml version="1.0" encoding="utf-8"?>
<!-- Generator: Adobe Illustrator 18.0.0, SVG Export Plug-In . SVG Version: 6.00 Build 0)  -->
<!DOCTYPE svg PUBLIC "-//W3C//DTD SVG 1.1//EN" "http://www.w3.org/Graphics/SVG/1.1/DTD/svg11.dtd">
<svg version="1.1" id="Слой_1" xmlns="http://www.w3.org/2000/svg" xmlns:xlink="http://www.w3.org/1999/xlink" x="0px" y="0px"
	 viewBox="0 300.6 1590 456" enable-background="new 0 300.6 1590 456" xml:space="preserve">
<path fill="none" stroke="#000000" stroke-width="2" stroke-miterlimit="10" d="M1569.5,723.7v-36.6V654H1543v-31.5h-8.6v-19.3h-8
	l-6.4-51.6l-2.9,51.6h-8v21.6h-14V462.3l-9.5-9.5l-7.4,7.4h-35.4l-7.2-7.2l-9,9h-8l-10.1,10.1v48.9h-29.4v15h-20v17.9h-9.3v17.9h-15
	v39.5h-20v-25.1H1284v-72.4h-91.1V551H1180v53.7h-33.1v-14.4h-51.6v17.1h-6.4v-78.8h-32.3V510h-90.3v65.2H954V461.1h-12.8v-20h-12.8
	v8.6h-13.6l-13.6-15.8v-34.5h-15.8v34.5L873.8,451h-14.4v-11.5l-11.5,1.4v21.6l-12.8,2.9v80.4h-54.5V356.4L772,355v-31.7l-37.4-7.2
	l-38.7,7.2v37.4h-7.2v196.6l-20,33.1l0.4,117.6h-10.3v-23h-34.5v-10.1l-11.5-109l-9.3,109.4l-15-0.2V574.4l-41.7-78.8h-17.3
	l-45.9,78.8v97.5l-80.4,1.4v28.6h-44.4l-1.4-234.2c14.6-5.6,26.1-26.3,24.3-46.9c-2.5-31.5-27.3-45.4-45-47.3
	c-2.1-0.2-4.5-0.4-6.6-0.4c-10.9,0-21.2,3.5-29.6,9.3c-4.5,2.9-8.6,6.8-11.9,11.7c-6.2,8.6-9.9,18.9-9.9,30.2
	c0,18.9,10.3,35.4,25.5,44.2V719h-37.4v-33.1h-47.3v-34.5h-45.9v-94.6H109v15.8H91.9v14.4H58.8v38.7H24.3v34.5H0v114.8l1590.3-10.7
	v-43.8L1569.5,723.7z"/>
</svg>
